PathFileType	4	(X/Y/Z)	/home/ubuntu/injury_detection/risk_analysis_package/data/KD_injured/trc_data/trials/KD_injured.trc
DataRate	CameraRate	NumFrames	NumMarkers	Units	OrigDataRate	OrigDataStartFrame	OrigNumFrames
30	30	4	105	m	30	12	98
Frame#	Time	BLTI			BRTI			C7			CHIN			CLAV			FBBT			FLTI			FRBT			FRTI			LAKI			LANK			LBAC			LBHD			LBWT			LELB			LELS			LELSO			LFBB			LFBT			LFFB			LFFT			LFHD			LFIN			LFLB			LFLT			LFMB			LFMT			LFPI			LFRM			LFWT			LHAP			LHBA			LHEB			LHEE			LHFR			LHME			LHPI			LHTH			LHTO			LKNE			LKNI			LMT5			LSCA			LSHN			LSHO			LTIA			LTIB			LTIC			LTOE			LTOP			LTOS			LUMB			LUMC			LWRA			LWRB			NOSE			RAKI			RANK			RBAC			RBHD			RBWT			RELB			RELS			RELSO			RFBB			RFBT			RFFB			RFFT			RFHD			RFIN			RFLB			RFLT			RFMB			RFMT			RFPI			RFRM			RFWT			RHAP			RHBA			RHEB			RHEE			RHFR			RHME			RHPI			RHTH			RHTO			RIBL			RIBR			RITL			RITR			RKNE			RKNI			RMT5			RSCA			RSHN			RSHO			RTIA			RTIB			RTIC			RTOE			RTOP			RTOS			RWRA			RWRB			THD		
		X1	Y1	Z1	X2	Y2	Z2	X3	Y3	Z3	X4	Y4	Z4	X5	Y5	Z5	X6	Y6	Z6	X7	Y7	Z7	X8	Y8	Z8	X9	Y9	Z9	X10	Y10	Z10	X11	Y11	Z11	X12	Y12	Z12	X13	Y13	Z13	X14	Y14	Z14	X15	Y15	Z15	X16	Y16	Z16	X17	Y17	Z17	X18	Y18	Z18	X19	Y19	Z19	X20	Y20	Z20	X21	Y21	Z21	X22	Y22	Z22	X23	Y23	Z23	X24	Y24	Z24	X25	Y25	Z25	X26	Y26	Z26	X27	Y27	Z27	X28	Y28	Z28	X29	Y29	Z29	X30	Y30	Z30	X31	Y31	Z31	X32	Y32	Z32	X33	Y33	Z33	X34	Y34	Z34	X35	Y35	Z35	X36	Y36	Z36	X37	Y37	Z37	X38	Y38	Z38	X39	Y39	Z39	X40	Y40	Z40	X41	Y41	Z41	X42	Y42	Z42	X43	Y43	Z43	X44	Y44	Z44	X45	Y45	Z45	X46	Y46	Z46	X47	Y47	Z47	X48	Y48	Z48	X49	Y49	Z49	X50	Y50	Z50	X51	Y51	Z51	X52	Y52	Z52	X53	Y53	Z53	X54	Y54	Z54	X55	Y55	Z55	X56	Y56	Z56	X57	Y57	Z57	X58	Y58	Z58	X59	Y59	Z59	X60	Y60	Z60	X61	Y61	Z61	X62	Y62	Z62	X63	Y63	Z63	X64	Y64	Z64	X65	Y65	Z65	X66	Y66	Z66	X67	Y67	Z67	X68	Y68	Z68	X69	Y69	Z69	X70	Y70	Z70	X71	Y71	Z71	X72	Y72	Z72	X73	Y73	Z73	X74	Y74	Z74	X75	Y75	Z75	X76	Y76	Z76	X77	Y77	Z77	X78	Y78	Z78	X79	Y79	Z79	X80	Y80	Z80	X81	Y81	Z81	X82	Y82	Z82	X83	Y83	Z83	X84	Y84	Z84	X85	Y85	Z85	X86	Y86	Z86	X87	Y87	Z87	X88	Y88	Z88	X89	Y89	Z89	X90	Y90	Z90	X91	Y91	Z91	X92	Y92	Z92	X93	Y93	Z93	X94	Y94	Z94	X95	Y95	Z95	X96	Y96	Z96	X97	Y97	Z97	X98	Y98	Z98	X99	Y99	Z99	X100	Y100	Z100	X101	Y101	Z101	X102	Y102	Z102	X103	Y103	Z103	X104	Y104	Z104	X105	Y105	Z105

13	0.4	0.256255	-0.302574	78.3409	0.3496	-0.223772	78.3034	0.178311	0.305545	77.9373	0.226793	0.175006	77.871	0.165497	0.187422	77.8784	0.269705	-0.247504	78.4056	0.16895	-0.233798	78.3401	0.358111	-0.161938	78.3806	0.289328	-0.136981	78.2731	0.304633	-0.301767	78.4809	0.370884	-0.31888	78.4641	0.329569	0.332477	77.7756	0.139737	0.0478606	77.9857	0.16398	-0.0416103	77.6521	0.3698	0.49828	77.723	0.333228	0.466204	77.6937	0.398822	0.479864	77.7086	0.111416	-0.175517	78.0855	0.160185	-0.137823	77.9474	-0.000294387	-0.122549	78.1659	0.0301839	-0.0777923	77.9482	0.227776	0.0197656	77.8939	0.478803	0.742195	77.5382	0.0786437	-0.103449	78.1419	0.150457	-0.0255849	77.9976	0.0205115	-0.182979	78.0784	0.064441	-0.133544	77.9068	0.433374	-0.164524	78.4329	0.395727	0.600688	77.6765	0.23143	0.0506663	77.8262	0.350534	0.303079	77.7565	0.34585	0.41469	77.773	0.386478	-0.31081	78.5464	0.370931	-0.350755	78.5335	0.38785	0.356543	77.7211	0.558712	0.78994	77.5024	0.45845	0.772362	77.587	0.411872	0.726494	77.5071	0.405659	0.347562	77.7986	0.0877805	-0.156139	78.1832	0.0162248	-0.204665	78.1982	0.394893	-0.147482	78.4287	0.272349	0.313447	77.9205	0.184852	-0.214991	78.2229	0.362808	0.235439	77.9305	0.0863841	-0.173951	78.2572	0.218005	-0.214375	78.354	0.286782	-0.266313	78.4337	0.385403	-0.102133	78.4066	0.425652	-0.208229	78.4485	0.347034	-0.150606	78.4605	0.243624	0.110006	77.5977	0.22406	0.0803633	77.603	0.384793	0.706526	77.5632	0.408951	0.723392	77.6115	0.220111	0.0817779	77.8264	0.440305	-0.157492	78.4036	0.460921	-0.210094	78.4437	0.177589	0.378819	77.73	0.0718749	0.0760972	77.9268	0.108969	-0.0127748	77.6321	0.0862763	-0.0180829	77.6187	0.121325	0.0179262	77.6506	0.0536235	0.00202355	77.6313	0.0828251	-0.156121	78.0328	0.0231006	-0.109564	77.8861	0.15294	-0.0706438	78.1297	0.141166	-0.020692	77.9332	0.133189	0.0725137	77.8138	0.11833	-0.287911	77.8528	0.0784119	-0.103928	78.1008	-0.00112385	0.0200137	77.9686	0.153398	-0.135401	78.0203	0.117519	-0.0830947	77.8839	0.529618	-0.0308017	78.522	0.0824428	-0.11146	77.6736	0.0468713	0.138089	77.7578	0.0795562	0.176148	77.7471	0.0673051	0.11708	77.6594	0.535189	-0.186889	78.4025	0.507142	-0.218921	78.3983	0.0761458	0.0721228	77.7321	0.142613	-0.362735	77.9077	0.103219	-0.308548	77.7983	0.160235	-0.219079	77.8341	0.0161192	0.123887	77.7181	0.26584	0.094294	77.7797	0.0879635	0.193596	77.6148	0.250248	0.172822	77.8812	0.111437	0.202887	77.839	0.117018	-0.151045	78.1662	0.188771	-0.130552	78.1136	0.498208	-0.0325682	78.5009	0.0980997	0.357371	77.8451	0.250284	-0.203389	78.2971	0.0190344	0.271587	77.8527	0.184416	-0.120387	78.2044	0.274144	-0.138515	78.2924	0.392121	-0.153967	78.4032	0.469374	0.00452611	78.4899	0.544454	-0.0841588	78.5218	0.48725	-0.0404779	78.4577	0.101852	-0.200842	77.8003	0.0765366	-0.233386	77.7641	0.11712	-0.0475352	77.8713
14	0.433333	0.247384	-0.299504	78.4741	0.338435	-0.219235	78.4417	0.168546	0.30378	78.07	0.215906	0.174581	78.0021	0.156147	0.1863	78.01	0.258996	-0.243912	78.5389	0.158594	-0.232896	78.4723	0.344373	-0.156537	78.5187	0.2781	-0.133138	78.4093	0.294239	-0.296931	78.6147	0.360916	-0.313072	78.5986	0.32242	0.331456	77.9101	0.133439	0.044745	78.1169	0.157046	-0.0417459	77.7842	0.363641	0.491397	77.8496	0.324192	0.460093	77.8236	0.391018	0.471722	77.8341	0.102604	-0.177416	78.2165	0.152158	-0.138817	78.0793	-0.0103143	-0.125303	78.2959	0.0219403	-0.0789831	78.0791	0.221634	0.0194623	78.0244	0.47071	0.726813	77.6531	0.0687724	-0.105552	78.2726	0.141678	-0.0268952	78.1296	0.0116835	-0.185249	78.2087	0.0566747	-0.134359	78.0381	0.422796	-0.158137	78.5684	0.390526	0.591886	77.7996	0.223889	0.0504757	77.9584	0.339191	0.299226	77.8903	0.339471	0.410835	77.9038	0.375284	-0.305177	78.6816	0.360259	-0.345168	78.6684	0.376243	0.349776	77.8513	0.5497	0.77056	77.6108	0.454737	0.7593	77.702	0.401245	0.713184	77.6268	0.39798	0.342363	77.9283	0.0776258	-0.157968	78.3142	0.00639657	-0.207288	78.3286	0.383994	-0.141915	78.5638	0.263788	0.311439	78.0547	0.175353	-0.21416	78.355	0.354162	0.231529	78.0638	0.0756094	-0.175306	78.3882	0.207069	-0.21217	78.4866	0.276297	-0.262057	78.5672	0.373862	-0.0967869	78.5414	0.415531	-0.202221	78.5841	0.33595	-0.145792	78.595	0.23671	0.110412	77.7304	0.217105	0.0807109	77.7354	0.377079	0.696031	77.6851	0.404714	0.713132	77.7314	0.21158	0.0814128	77.9574	0.425961	-0.151056	78.5437	0.445846	-0.203305	78.5847	0.170426	0.378156	77.8629	0.0643259	0.0712636	78.0586	0.102118	-0.0128988	77.7641	0.0736748	-0.0289423	77.764	0.109092	0.0101075	77.7913	0.0412737	-0.00872269	77.7767	0.0759818	-0.155524	78.165	0.0160156	-0.109777	78.0181	0.144727	-0.0693518	78.2616	0.133253	-0.0201464	78.0651	0.124873	0.0696741	77.9453	0.126692	-0.28133	78.0133	0.0706123	-0.103281	78.2327	-0.0093339	0.019856	78.0998	0.14644	-0.134515	78.1527	0.110271	-0.0828798	78.0161	0.511599	-0.0227929	78.6625	0.0755138	-0.118482	77.825	0.0395509	0.137741	77.8893	0.0701028	0.174342	77.8789	0.0536542	0.10923	77.7964	0.521105	-0.180249	78.5452	0.493293	-0.212397	78.5407	0.067577	0.0689902	77.8712	0.156621	-0.351481	78.0715	0.109609	-0.305987	77.9611	0.164754	-0.212414	77.9882	0.00556634	0.118759	77.8571	0.257804	0.0933348	77.9118	0.0812685	0.193937	77.746	0.240592	0.17084	78.0135	0.102982	0.201606	77.9699	0.10896	-0.14967	78.2982	0.181398	-0.128826	78.2462	0.480855	-0.025149	78.6404	0.0892668	0.356308	77.9769	0.239115	-0.199878	78.4327	0.0112062	0.271181	77.9835	0.174913	-0.118135	78.3377	0.262477	-0.134746	78.4282	0.377755	-0.147935	78.5421	0.452093	0.0114437	78.6278	0.526789	-0.0760433	78.6636	0.471388	-0.0338599	78.597	0.103991	-0.198445	77.9563	0.0781116	-0.234188	77.9237	0.112834	-0.0510704	78.0025
15	0.466667	0.238609	-0.302683	78.8742	0.333519	-0.222675	78.8411	0.159725	0.298439	78.4717	0.209477	0.170803	78.4029	0.149604	0.181533	78.4101	0.250448	-0.24705	78.939	0.150425	-0.235436	78.8719	0.339335	-0.161002	78.9188	0.273261	-0.13612	78.8097	0.28489	-0.300065	79.015	0.351304	-0.317117	78.9992	0.315847	0.329589	78.3144	0.127862	0.0383857	78.5152	0.151985	-0.0431057	78.1839	0.354051	0.487782	78.2499	0.314916	0.455593	78.2247	0.381579	0.46805	78.2349	0.0959212	-0.179529	78.6158	0.14638	-0.140906	78.4788	-0.016967	-0.126868	78.6947	0.0164304	-0.0804394	78.4782	0.217772	0.0156202	78.4238	0.458502	0.719764	78.0479	0.0622848	-0.10751	78.6717	0.136171	-0.0289057	78.5293	0.00502039	-0.186763	78.6076	0.0510692	-0.13585	78.4373	0.41645	-0.16344	78.9695	0.379794	0.587455	78.1975	0.21948	0.0482962	78.3582	0.331712	0.29604	78.294	0.330789	0.40792	78.3058	0.365525	-0.309859	79.0823	0.349824	-0.349478	79.069	0.368125	0.34633	78.2541	0.537037	0.76339	78.0046	0.442266	0.753154	78.0961	0.389138	0.704937	78.022	0.390011	0.340492	78.3314	0.0706473	-0.160227	78.7133	-0.000996478	-0.209001	78.7275	0.377979	-0.146569	78.9649	0.254891	0.307664	78.4578	0.167818	-0.217067	78.7547	0.346187	0.229326	78.4677	0.0682105	-0.177457	78.7873	0.198994	-0.215052	78.8864	0.26749	-0.26512	78.9674	0.368754	-0.101267	78.9424	0.408292	-0.207534	78.9852	0.329777	-0.149644	78.9957	0.232275	0.109594	78.1305	0.212519	0.0798064	78.1353	0.365159	0.688841	78.0807	0.392644	0.707263	78.1266	0.20746	0.0780558	78.3572	0.420959	-0.155931	78.9439	0.4409	-0.208441	78.9843	0.16399	0.37527	78.2654	0.0589974	0.0643374	78.4562	0.0971314	-0.0139877	78.1639	0.0717201	-0.0354825	78.1648	0.106758	0.00432247	78.1916	0.0392099	-0.0153235	78.177	0.0713836	-0.156543	78.5648	0.0112959	-0.110972	78.418	0.14002	-0.0704996	78.6617	0.128458	-0.0214087	78.4649	0.121171	0.0648657	78.3439	0.126684	-0.28481	78.417	0.0659353	-0.104502	78.6325	-0.0140097	0.0184373	78.4997	0.141807	-0.135487	78.5526	0.105521	-0.0842037	78.4158	0.503476	-0.0287193	79.0657	0.0741371	-0.124224	78.2269	0.0352498	0.136458	78.2895	0.0655802	0.169411	78.2775	0.0501707	0.103228	78.1955	0.516449	-0.183836	78.9457	0.489026	-0.216344	78.9404	0.0642594	0.0637631	78.2707	0.156973	-0.354432	78.4755	0.1096	-0.309878	78.3649	0.16431	-0.215921	78.3913	0.00170174	0.112734	78.2558	0.254339	0.0903311	78.3121	0.0771633	0.192823	78.1471	0.234179	0.166878	78.415	0.096913	0.19652	78.3693	0.104259	-0.151045	78.6979	0.1768	-0.129786	78.6465	0.472983	-0.0311955	79.0433	0.0812679	0.351147	78.3778	0.234148	-0.203087	78.8323	0.00433055	0.265052	78.3815	0.170163	-0.12006	78.7381	0.257593	-0.137908	78.8286	0.372668	-0.152839	78.9424	0.443663	0.00508726	79.0311	0.519603	-0.0816425	79.066	0.464194	-0.0392756	78.9996	0.103348	-0.202356	78.3594	0.0775886	-0.238572	78.3272	0.110532	-0.0566661	78.3996
16	0.5	0.216421	-0.312941	77.4667	0.312425	-0.226202	77.4405	0.14499	0.283837	77.068	0.197163	0.159753	76.9962	0.138075	0.168603	77.0029	0.226977	-0.25695	77.5317	0.128553	-0.245797	77.462	0.316053	-0.164482	77.5185	0.253314	-0.139291	77.4074	0.259452	-0.309286	77.6087	0.325759	-0.327381	77.5942	0.305638	0.321035	76.9155	0.120571	0.0218168	77.105	0.144131	-0.0495842	76.775	0.340098	0.468126	76.8337	0.299346	0.435076	76.8132	0.366517	0.446992	76.8189	0.0799657	-0.190084	77.2041	0.133466	-0.150035	77.0687	-0.0342006	-0.137419	77.2808	0.00385769	-0.0887148	77.0661	0.21313	0.00499611	77.015	0.437607	0.68343	76.6109	0.0455696	-0.118275	77.2597	0.122698	-0.0383958	77.1202	-0.0108183	-0.196462	77.1941	0.0389547	-0.143721	77.0257	0.396068	-0.175862	77.5661	0.364309	0.563596	76.773	0.210179	0.0399493	76.9508	0.316695	0.281192	76.8923	0.318102	0.393238	76.8968	0.338337	-0.321134	77.678	0.321912	-0.360166	77.6642	0.351892	0.327531	76.8475	0.514428	0.722685	76.5607	0.42444	0.720439	76.6572	0.366666	0.668612	76.5894	0.377121	0.326633	76.9245	0.0526125	-0.171542	77.3014	-0.0197033	-0.219729	77.3141	0.358004	-0.158319	77.5609	0.240822	0.295176	77.0568	0.148737	-0.228107	77.3451	0.333164	0.217557	77.0663	0.0483885	-0.188395	77.3753	0.176823	-0.225266	77.4776	0.243378	-0.274565	77.5605	0.350071	-0.112948	77.538	0.386571	-0.219896	77.5819	0.309312	-0.160313	77.5907	0.2258	0.104533	76.724	0.20592	0.074516	76.7279	0.345381	0.65705	76.6503	0.375311	0.67812	76.6934	0.200819	0.0677768	76.9492	0.397014	-0.159652	77.5459	0.41552	-0.212268	77.5865	0.153782	0.366085	76.8634	0.0513803	0.0452537	77.0452	0.0897669	-0.0199325	76.7545	0.058141	-0.0583252	76.7708	0.0939681	-0.0159186	76.7924	0.0263346	-0.0374748	76.783	0.057793	-0.160161	77.1569	-1.2517e-05	-0.116252	77.0084	0.124654	-0.0733617	77.2542	0.116386	-0.0268216	77.0563	0.115489	0.0503979	76.9341	0.129592	-0.289945	77.0365	0.0510265	-0.107716	77.2239	-0.0264354	0.0137915	77.0884	0.128381	-0.139426	77.1458	0.0943231	-0.0902084	77.0074	0.47428	-0.0332057	77.671	0.0648319	-0.142191	76.8391	0.0273849	0.129986	76.8799	0.0550683	0.155664	76.8684	0.0360442	0.0834363	76.7923	0.492527	-0.187345	77.5505	0.465352	-0.219898	77.5441	0.054921	0.0490115	76.8691	0.162887	-0.356531	77.0967	0.109493	-0.31762	76.9868	0.165551	-0.222767	77.0052	-0.00933121	0.0961071	76.8541	0.246663	0.0805145	76.9053	0.0709007	0.187311	76.7401	0.222469	0.154349	77.0097	0.0866772	0.183213	76.961	0.0879149	-0.15357	77.2901	0.161782	-0.132633	77.2405	0.444723	-0.0358192	77.6475	0.0679077	0.33794	76.9728	0.213295	-0.206239	77.4288	-0.00626965	0.251218	76.9716	0.152459	-0.122798	77.3326	0.237085	-0.141033	77.4257	0.348737	-0.156459	77.5429	0.415457	0.000193983	77.6345	0.490914	-0.0858892	77.6716	0.437974	-0.0436706	77.6033	0.102609	-0.210433	76.9757	0.0751055	-0.248603	76.9473	0.110251	-0.0724638	76.9879
